<svg clip-rule="evenodd" fill-rule="evenodd" stroke-linejoin="round" stroke-miterlimit="2" viewBox="0 0 48 48" xmlns="http://www.w3.org/2000/svg"><g transform="matrix(.53498 0 0 .667192 -1802.24 -285.596)"><path d="m3368.79 428.057h89.723v71.943h-89.723z" fill="none"/><path d="m3379.18 439.752c1.07.298 2.04 1.002 2.64 2.044s.73 2.229.45 3.31l9.61 5.547c1.37-1.356 3.54-1.688 5.29-.675 2.11 1.217 2.83 3.915 1.61 6.022-1.21 2.107-3.91 2.83-6.02 1.613-1.75-1.013-2.55-3.053-2.06-4.924l-9.61-5.546c-.26.256-.56.483-.89.675-1.75 1.012-3.92.681-5.29-.675l-9.61 5.546c.19.736.19 1.497 0 2.213l9.61 5.547c1.37-1.356 3.54-1.688 5.29-.675 2.11 1.217 2.83 3.915 1.62 6.022-1.22 2.107-3.92 2.83-6.02 1.613-1.76-1.013-2.55-3.053-2.07-4.924l-9.61-5.546c-.25.256-.55.483-.88.674-2.11 1.217-4.81.494-6.02-1.613-1.22-2.107-.5-4.805 1.61-6.022.33-.191.68-.334 1.03-.432v-11.093c-1.87-.515-3.24-2.223-3.24-4.249 0-2.433 1.98-4.408 4.41-4.408 2.44 0 4.41 1.975 4.41 4.408 0 2.026-1.37 3.734-3.23 4.249v11.095c.71.197 1.37.572 1.91 1.105l9.61-5.546c-.48-1.871.31-3.912 2.07-4.925.33-.191.67-.334 1.02-.431v-11.093c-1.86-.515-3.23-2.224-3.23-4.25 0-2.433 1.98-4.408 4.41-4.408s4.41 1.975 4.41 4.408c0 .382-.05.753-.14 1.107l9.61 5.546c1.37-1.356 3.54-1.688 5.29-.675 2.11 1.217 2.83 3.915 1.61 6.022-1.21 2.107-3.91 2.83-6.02 1.614-1.75-1.013-2.55-3.054-2.06-4.925l-9.61-5.547c-.53.518-1.18.905-1.91 1.108zm-1.18 21.84c1.1 0 2 .896 2 2s-.9 2-2 2-2-.896-2-2 .9-2 2-2zm-17-9.796c1.1-.019 2.01.861 2.03 1.965s-.86 2.015-1.96 2.035c-1.11.019-2.02-.862-2.04-1.965-.02-1.104.86-2.016 1.97-2.035zm33.97 0c1.1 0 2 .896 2 2s-.9 2-2 2c-1.11 0-2-.896-2-2s.89-2 2-2zm-16.97-9.796c1.1 0 2 .896 2 2s-.9 2-2 2-2-.896-2-2 .9-2 2-2zm-16.97-9.796c1.11 0 2 .896 2 2s-.89 2-2 2c-1.1 0-2-.896-2-2s.9-2 2-2zm33.94 0c1.1 0 2 .896 2 2s-.9 2-2 2c-1.11 0-2-.896-2-2s.89-2 2-2zm-16.97-9.796c1.1 0 2 .896 2 2s-.9 2-2 2-2-.896-2-2 .9-2 2-2z" fill="#fff" transform="matrix(1.86923 0 0 1.49882 -2900.6 -201.448)"/></g></svg>